#define _width 19
#define _height 19
static char _bits[] = {
 0x00,0x00,0x00,0x00,0x00,0x00,0x00,0x00,0x00,0x00,0x07,0x00,0x80,0x0f,0x00,
 0x80,0x0f,0x00,0x80,0x0f,0x00,0x00,0x07,0x00,0x70,0x72,0x00,0xf8,0xfa,0x00,
 0xf8,0xff,0x00,0xf8,0xfa,0x00,0x70,0x72,0x00,0x00,0x02,0x00,0x00,0x07,0x00,
 0x80,0x0f,0x00,0x00,0x00,0x00,0x00,0x00,0x00,0x00,0x00,0x00 };
