#define _width 19
#define _height 19
static char _bits[] = {
 0x00,0x00,0x00,0x00,0x00,0x00,0x00,0x03,0x00,0x00,0x03,0x00,0x80,0x07,0x00,
 0x80,0x07,0x00,0xc0,0x0f,0x00,0xc0,0x0f,0x00,0xe0,0x1f,0x00,0xe0,0x1f,0x00,
 0xc0,0x0f,0x00,0xc0,0x0f,0x00,0x80,0x07,0x00,0x80,0x07,0x00,0x00,0x03,0x00,
 0x00,0x03,0x00,0x00,0x00,0x00,0x00,0x00,0x00,0x00,0x00,0x00 };
