#define _width 19
#define _height 19
static char _bits[] = {
 0x00,0x00,0x00,0x00,0x00,0x00,0xe0,0x38,0x00,0xe0,0x3a,0x00,0x60,0x32,0x00,
 0x60,0x37,0x00,0x20,0x27,0x00,0xa0,0x2f,0x00,0x80,0x0f,0x00,0x80,0x0f,0x00,
 0xa0,0x2f,0x00,0x20,0x27,0x00,0x60,0x37,0x00,0x60,0x32,0x00,0xe0,0x3a,0x00,
 0xe0,0x38,0x00,0x00,0x00,0x00,0x00,0x00,0x00,0x00,0x00,0x00 };
